<svg width="65" height="65" viewBox="0 0 65 65" fill="none" xmlns="http://www.w3.org/2000/svg">
<circle cx="32.5" cy="32.5" r="32.5" fill="#D9D9D9"/>
<path d="M33.4974 50.432C29.0174 50.432 25.4654 49.664 22.8414 48.128C20.2494 46.592 18.9534 44.464 18.9534 41.744C18.9534 40.56 19.4014 39.6 20.2974 38.864C21.1934 38.128 22.6974 37.76 24.8094 37.76C24.9374 40.096 25.7374 41.872 27.2094 43.088C28.7134 44.272 30.8094 44.864 33.4974 44.864C35.5774 44.864 37.2094 44.512 38.3934 43.808C39.5774 43.072 40.1694 42.064 40.1694 40.784C40.1694 39.92 39.9454 39.216 39.4974 38.672C39.0494 38.128 38.2654 37.632 37.1454 37.184C36.0574 36.736 34.4574 36.272 32.3454 35.792C29.1454 35.056 26.6334 34.224 24.8094 33.296C22.9854 32.368 21.6574 31.264 20.8254 29.984C20.0254 28.704 19.6254 27.104 19.6254 25.184C19.6254 23.36 20.1694 21.76 21.2574 20.384C22.3774 18.976 23.9294 17.888 25.9134 17.12C27.8974 16.352 30.2014 15.968 32.8254 15.968C35.3214 15.968 37.5614 16.304 39.5454 16.976C41.5294 17.616 43.0814 18.528 44.2014 19.712C45.3214 20.896 45.8814 22.256 45.8814 23.792C45.8814 24.976 45.4334 25.92 44.5374 26.624C43.6734 27.296 42.2334 27.664 40.2174 27.728C40.0574 25.584 39.4014 24.016 38.2494 23.024C37.0974 22.032 35.2894 21.536 32.8254 21.536C30.8094 21.536 29.2574 21.856 28.1694 22.496C27.0814 23.136 26.5374 24.064 26.5374 25.28C26.5374 26.112 26.7454 26.8 27.1614 27.344C27.5774 27.856 28.2814 28.32 29.2734 28.736C30.2974 29.152 31.7534 29.568 33.6414 29.984C36.9374 30.72 39.5454 31.568 41.4654 32.528C43.4174 33.456 44.8254 34.576 45.6894 35.888C46.5854 37.2 47.0334 38.816 47.0334 40.736C47.0334 42.688 46.4734 44.4 45.3534 45.872C44.2654 47.344 42.6974 48.48 40.6494 49.28C38.6334 50.048 36.2494 50.432 33.4974 50.432Z" fill="#2F5DA0"/>
</svg>
